# xmcd
#
# Track frame offsets: 
#        150
#        12142
#        31795
#        44370
#        61095
#        71207
#        85520
#        100447
#        109115
#        119890
#        140355
#        151600
#        164742
#        174462
#        184447
#        194930
#        210442
#        219105
#        231940
#        244497
#        256412
#        270565
#        281190
#        294117
#        310157
#
# Disc length: 4380 seconds
#
# Revision: 3
# Processed by: cddbd v1.5.2PL0 Copyright (c) Steve Scherf et al.
# Submitted via: ExactAudioCopy v0.99pb5
#
DISCID=74111a19
DTITLE=Various Artist - Country Stars [CD 2)
DYEAR=1992
DGENRE=Country
TTITLE0=Freddy Quinn - Tennessee Teardrops
TTITLE1=The Bellamy Brothers - If I Said You Had a Beautiful Body
TTITLE2=Dottie West - Here Comes My Baby
TTITLE3=Tanya Tucker - The Night They Drowe Old Dixie Down
TTITLE4=Ricky Nelson - Lonesome Town
TTITLE5=Lynn Anderson - Cry
TTITLE6=Jerry Lee Lewis - You Win Again
TTITLE7=Loretta Lynn - We've Come a Long Way Baby
TTITLE8=Patsy Cline - Honky Tonk Merry Go Round
TTITLE9=Nitty Gritty Dirt Band - Mr. Bojangles
TTITLE10=George Jones - The Race is on
TTITLE11=Tammy Wynette - Stand By Your Man
TTITLE12=Bobby Bare - White Freight Liner Blues
TTITLE13=Freddy Fender - Before the Next Teardrop Falls
TTITLE14=Hoyt Axton - Boney Fingers
TTITLE15=Don Williams - Till the River Runs Dry
TTITLE16=Barbara Mandrell - I Gave My Heart to a Railroad
TTITLE17=Carl Perkins - Hallelujah Special
TTITLE18=Mickey Gilley - Headache Tomorrow, Heartache Tonight
TTITLE19=Donna Fargo - U.S. of America
TTITLE20=Ronny Robbins - El Paso
TTITLE21=Stella Parton - Danger of a Stranger
TTITLE22=Charlie Rich - San Antonio Stroll
TTITLE23=Anne Murray - From Both Sides Now
TTITLE24=Merle Haggard - Mama Don't Let Your Babies
EXTD=
EXTT0=
EXTT1=
EXTT2=
EXTT3=
EXTT4=
EXTT5=
EXTT6=
EXTT7=
EXTT8=
EXTT9=
EXTT10=
EXTT11=
EXTT12=
EXTT13=
EXTT14=
EXTT15=
EXTT16=
EXTT17=
EXTT18=
EXTT19=
EXTT20=
EXTT21=
EXTT22=
EXTT23=
EXTT24=
PLAYORDER=
